<?xml version="1.0" encoding="UTF-8"?>
<svg id="Layer_2" data-name="Layer 2" xmlns="http://www.w3.org/2000/svg" viewBox="0 0 1632.41 549.38">
  <defs>
    <style>
      .cls-1 {
        fill: #ebd346;
      }
    </style>
  </defs>
  <g id="Layer_1-2" data-name="Layer 1">
    <g>
      <g>
        <path d="M44.09,483.21v-111.8H0v-25.98h120.07v25.98h-44.09v111.8h-31.89Z"/>
        <path d="M127.94,483.21l61.41-137.78h31.49l61.61,137.78h-33.46l-50.39-121.64h12.6l-50.59,121.64h-32.67ZM158.65,453.69l8.46-24.21h70.86l8.66,24.21h-87.98Z"/>
        <path d="M334.23,483.21v-111.8h-44.09v-25.98h120.07v25.98h-44.09v111.8h-31.89Z"/>
      </g>
      <g>
        <path d="M1178.9,486.76v-137.78h67.32c17.32,0,30.34,3.28,39.07,9.84,8.73,6.56,13.09,15.22,13.09,25.98,0,7.22-1.77,13.48-5.31,18.8s-8.4,9.42-14.57,12.3c-6.17,2.89-13.26,4.33-21.26,4.33l3.74-8.07c8.66,0,16.34,1.41,23.03,4.23,6.69,2.82,11.91,6.99,15.65,12.5s5.61,12.27,5.61,20.27c0,11.81-4.66,21.03-13.97,27.65-9.32,6.63-23.03,9.94-41.14,9.94h-71.25ZM1210.59,462.74h37.2c8.27,0,14.53-1.34,18.8-4.04,4.26-2.69,6.4-6.99,6.4-12.89s-2.13-10.07-6.4-12.89c-4.27-2.82-10.53-4.23-18.8-4.23h-39.56v-23.23h34.05c7.74,0,13.68-1.34,17.81-4.04,4.13-2.69,6.2-6.79,6.2-12.3s-2.07-9.41-6.2-12.11c-4.13-2.69-10.07-4.04-17.81-4.04h-31.69v89.76Z"/>
        <path d="M1327.12,486.76l61.41-137.78h31.49l61.61,137.78h-33.46l-50.39-121.64h12.6l-50.59,121.64h-32.67ZM1357.83,457.23l8.46-24.21h70.86l8.66,24.21h-87.98Z"/>
        <path d="M1570.01,489.12c-19.55,0-34.84-5.44-45.86-16.34-11.02-10.89-16.53-26.44-16.53-46.65v-77.16h31.89v75.98c0,13.12,2.69,22.57,8.07,28.34,5.38,5.78,12.92,8.66,22.64,8.66s17.25-2.88,22.64-8.66c5.38-5.77,8.07-15.22,8.07-28.34v-75.98h31.49v77.16c0,20.21-5.51,35.76-16.53,46.65-11.02,10.89-26.31,16.34-45.86,16.34Z"/>
      </g>
      <polygon points="762.26 446.04 732.91 452.46 733.03 440.29 762.35 433.82 762.26 446.04"/>
      <path d="M912.18,522.08v-238.58l63.8-73.79,115.36,86.87-126.7-140.97-47.79,63.3-236.59,90.61,118.82-77.73-66.99-73.89-64.63,70.23-196.85,102.41,167-57.1v248.29h-128.57v27.65h586.07v-27.3h-182.93ZM830.71,521.14l-110.59.56.09-152.55,110.56-30.42-.06,182.41Z"/>
      <polygon points="508.79 384.13 543.03 377.64 543.03 415.81 508.79 418.76 508.79 384.13"/>
      <polygon points="548.54 376.46 581.79 370.06 581.79 413.25 548.54 415.31 548.54 376.46"/>
      <polygon points="508.79 424.32 543.03 422.05 543.03 460.91 508.79 458.65 508.79 424.32"/>
      <polygon points="548.54 422.05 581.79 419.27 581.79 462.66 548.54 460.91 548.54 422.05"/>
      <g>
        <polygon points="1055.91 402.53 1008.94 398.48 1008.94 346.12 1055.91 355.02 1055.91 402.53"/>
        <polygon points="1001.38 344.5 1001.38 397.81 955.76 394.97 955.76 335.72 1001.38 344.5"/>
        <polygon points="1055.91 457.26 1008.94 460.37 1008.94 407.05 1055.91 410.16 1055.91 457.26"/>
        <polygon points="1001.38 460.37 955.76 462.76 955.76 403.24 1001.38 407.05 1001.38 460.37"/>
      </g>
      <polygon class="cls-1" points="518.48 279.09 741.01 115.98 815.97 202.46 911.98 149.92 911.98 0 518.48 0 518.48 279.09"/>
    </g>
  </g>
</svg>