<?xml version="1.0" encoding="UTF-8"?>
<svg id="Layer_2" data-name="Layer 2" xmlns="http://www.w3.org/2000/svg" viewBox="0 0 624.5 549.38">
  <defs>
    <style>
      .cls-1 {
        fill: #ebd346;
      }

      .cls-2 {
        fill: #fff;
      }
    </style>
  </defs>
  <g id="Layer_1-2" data-name="Layer 1">
    <g>
      <polygon class="cls-2" points="291.65 446.04 262.3 452.46 262.42 440.29 291.74 433.82 291.65 446.04"/>
      <path class="cls-2" d="M441.57,522.08v-238.58l63.8-73.79,115.36,86.87-126.7-140.97-47.79,63.3-236.59,90.61,118.82-77.73-66.99-73.89-64.63,70.23L0,330.54l167-57.1v248.29H38.43v27.65h586.07v-27.3h-182.93ZM360.1,521.14l-110.59.56.09-152.55,110.56-30.42-.06,182.41Z"/>
      <polygon class="cls-2" points="77.93 376.46 111.18 370.06 111.18 413.25 77.93 415.31 77.93 376.46"/>
      <polygon class="cls-2" points="77.93 422.05 111.18 419.27 111.18 462.66 77.93 460.91 77.93 422.05"/>
      <g>
        <polygon class="cls-2" points="585.29 402.53 538.33 398.48 538.33 346.12 585.29 355.02 585.29 402.53"/>
        <polygon class="cls-2" points="530.77 344.5 530.77 397.81 485.15 394.97 485.15 335.72 530.77 344.5"/>
        <polygon class="cls-2" points="585.29 457.26 538.33 460.37 538.33 407.05 585.29 410.16 585.29 457.26"/>
        <polygon class="cls-2" points="530.77 460.37 485.15 462.76 485.15 403.24 530.77 407.05 530.77 460.37"/>
      </g>
      <polygon class="cls-1" points="47.87 279.09 270.4 115.98 345.36 202.46 441.37 149.92 441.37 0 47.87 0 47.87 279.09"/>
    </g>
  </g>
</svg>