<svg xmlns="http://www.w3.org/2000/svg" viewBox="0 0 120 120" fill="none">
  <circle cx="60" cy="60" r="60" fill="#2a2a2a"/>
  <circle cx="60" cy="48" r="22" fill="#4a4a4a"/>
  <ellipse cx="60" cy="100" rx="35" ry="24" fill="#4a4a4a"/>
  <path d="M37 44c0-14 10.3-24 23-24s23 10 23 24c0 2-.3 3.8-.7 5.6C81 38 71.5 28 60 28S39 38 37.7 49.6c-.4-1.8-.7-3.6-.7-5.6z" fill="#3a3a3a"/>
  <path d="M83 44c0 10-2 22-6 28l2-28h4z" fill="#3a3a3a"/>
  <circle cx="82" cy="72" r="4" fill="#3a3a3a"/>
  <path d="M82 76c0 8-2 18-4 24 4-4 6-14 6-20l-2-4z" fill="#3a3a3a"/>
</svg>
