<svg xmlns="http://www.w3.org/2000/svg" viewBox="0 0 120 120" fill="none">
  <circle cx="60" cy="60" r="60" fill="#2a2a2a"/>
  <circle cx="60" cy="48" r="22" fill="#4a4a4a"/>
  <path d="M60 26c-12.2 0-22 9.8-22 22 0 4.5 1.3 8.6 3.6 12.1C44.5 52.8 51.6 48 60 48s15.5 4.8 18.4 12.1c2.3-3.5 3.6-7.6 3.6-12.1 0-12.2-9.8-22-22-22z" fill="#3a3a3a"/>
  <ellipse cx="60" cy="100" rx="35" ry="24" fill="#4a4a4a"/>
  <path d="M38 30c0-6 4-14 22-14s22 8 22 14c0 4-2 6-4 7 1-2 1.5-4 1.5-7 0-8-8.7-12-19.5-12S40.5 22 40.5 30c0 3 .5 5 1.5 7-2-1-4-3-4-7z" fill="#3a3a3a"/>
</svg>
