<svg xmlns="http://www.w3.org/2000/svg" viewBox="0 0 120 120" fill="none">
  <circle cx="60" cy="60" r="60" fill="#2a2a2a"/>
  <circle cx="60" cy="48" r="22" fill="#4a4a4a"/>
  <ellipse cx="60" cy="100" rx="35" ry="24" fill="#4a4a4a"/>
  <path d="M36 42c0-14 10.7-26 24-26s24 12 24 26c0 3-.5 5.8-1.4 8.4C81.2 38.6 72 30 60 30S38.8 38.6 37.4 50.4C36.5 47.8 36 45 36 42z" fill="#3a3a3a"/>
  <path d="M36 42c-1 18 2 32 4 38-3-4-4-10-4-16v-22z" fill="#3a3a3a"/>
  <path d="M84 42c1 18-2 32-4 38 3-4 4-10 4-16V42z" fill="#3a3a3a"/>
</svg>
